<?xml version="1.0" encoding="utf-8"?>
<svg version="1.0" width="100" height="100" xmlns="http://www.w3.org/2000/svg">
  <path d="M50 10c-5.521 0-10 4.476-10 10 0 5.521 4.479 10 10 10s10-4.479 10-10c0-5.524-4.479-10-10-10zm0 13.333a3.333 3.333 0 1 1 0-6.665 3.333 3.333 0 0 1 0 6.665z" style="fill: rgb(0, 30, 255);"/>
  <path d="m78.62 23.574-9.189 9.189A13.305 13.305 0 0 1 60 36.666H40a13.305 13.305 0 0 1-9.431-3.903l-9.189-9.189-4.713 4.713 9.189 9.19A19.878 19.878 0 0 0 40 43.332V90h6.667V70h6.666v20H60V43.333a19.88 19.88 0 0 0 14.144-5.855l9.189-9.19-4.713-4.714zM53.333 63.333h-6.666v-20h6.666v20z" style="fill: rgb(0, 68, 255);"/>
</svg>